<?xml version="1.0" encoding="utf-8"?>
<!-- Generator: Adobe Illustrator 25.1.0, SVG Export Plug-In . SVG Version: 6.00 Build 0)  -->
<svg version="1.1" id="Layer_1" xmlns="http://www.w3.org/2000/svg" xmlns:xlink="http://www.w3.org/1999/xlink" x="0px" y="0px"
	 viewBox="0 0 626.4 224.7" style="enable-background:new 0 0 626.4 224.7;" xml:space="preserve">
<style type="text/css">
	.st0{fill:#336699;}
	.st1{fill:#00FFFF;}
	.st2{fill:#30D5C8;}
	.st3{opacity:0.8;fill:#336699;}
	.st4{opacity:0.5;fill:#336699;}
	.st5{fill:#B3B3B3;}
</style>
<g>
	<g>
		<path class="st0" d="M215.3,69.1l-4.4,19.2h-47.1l-4.2,18h43.7l-4.5,19.2h-43.6l-5.9,25.4h47L192,170h-73.1l23.3-100.9H215.3z"/>
		<path class="st0" d="M311.6,88.6h-31.4L261.4,170h-26.1L254,88.6h-31.5l4.5-19.5h89L311.6,88.6z"/>
		<path class="st0" d="M422.1,69.1L398.9,170h-26.1l10.3-44.6h-38.3L334.4,170h-26.1l23.3-100.9h26.1l-8.6,37.1h38.3l8.6-37.1H422.1
			z"/>
		<path class="st0" d="M536.7,69.1l-51.4,61.9l-9.1,39h-26.2l8.8-37.8l-23.2-63.1h27.9l13,39.6l30.2-39.6H536.7z"/>
		<path class="st0" d="M563.8,171.8c-8.6,0-16.3-0.7-23.1-2.2c-6.8-1.5-12.6-3.3-17.5-5.6l5.2-24.2h2.8c4.7,4.2,10.1,7.5,16.4,9.9
			c6.3,2.3,13,3.5,20.3,3.5c7.4,0,12.9-1,16.3-3c3.5-2,5.2-4.9,5.2-8.6c0-1.4-0.3-2.6-0.8-3.6c-0.6-1-1.7-2-3.3-3
			c-1.6-1-3.9-2-6.7-2.9c-2.8-1-6.5-2.1-10.9-3.4c-4.9-1.4-9.3-2.8-13.2-4.4c-3.9-1.6-7.2-3.5-10-5.6c-2.8-2.2-4.8-4.8-6.3-7.7
			c-1.4-2.9-2.1-6.3-2.1-10.4c0-10.1,4.5-18.2,13.4-24.2c8.9-6,21.1-9,36.6-9c7.5,0,14.5,0.6,21.1,1.8c6.6,1.2,12.2,2.9,16.8,4.9
			l-4.9,23.2h-2.8c-3.5-3.2-8.2-5.9-13.9-8.1c-5.8-2.2-12.1-3.3-18.9-3.3c-6.7,0-11.9,1-15.5,2.9c-3.7,1.9-5.5,4.6-5.5,8
			c0,1.6,0.3,2.9,0.8,3.9c0.5,1,1.6,2.1,3.3,3c1.4,0.9,3.7,1.9,6.8,2.9c3.1,1.1,6.8,2.2,11,3.3c11.3,3,19.4,6.6,24.2,10.6
			s7.2,9.6,7.2,16.5c0,5.8-1.3,11-3.9,15.4c-2.6,4.4-6.2,8-10.8,10.8c-4.8,2.9-10.3,5.1-16.5,6.4
			C578.5,171.1,571.6,171.8,563.8,171.8z"/>
	</g>
	<path class="st1" d="M539.2,37.1"/>
	<path class="st1" d="M539.2,37.1"/>
	<polygon class="st2" points="24,213.8 57.7,213.8 98.2,44.6 12.5,45.1 3.7,81 56.7,80.6 	"/>
	<polygon class="st0" points="72.1,170.5 112.4,2.8 199.8,2.8 192.4,39.2 137.1,39.2 105.8,170.1 	"/>
	<polygon class="st0" points="207,2.6 225.9,2.6 218.6,39 199.9,39 	"/>
	<polygon class="st3" points="233.2,2.9 252.1,2.9 244.7,39.4 226.1,39.4 	"/>
	<polygon class="st4" points="259.2,2.9 278.1,2.9 270.8,39.4 252.1,39.4 	"/>
	<g>
		<path class="st5" d="M97.4,213.7h-4.7l-8-12.1h-5.8l-2.8,12.1H72l7-30.2h8.3c1.9,0,3.4,0.1,4.5,0.4c1.2,0.2,2.2,0.7,3,1.3
			c0.8,0.6,1.4,1.2,1.8,2c0.4,0.8,0.7,1.8,0.7,2.9c0,2.5-0.8,4.7-2.4,6.6c-1.6,1.9-3.7,3.2-6.2,4L97.4,213.7z M92.9,191
			c0-0.7-0.1-1.3-0.3-1.8c-0.2-0.5-0.6-0.9-1-1.3c-0.5-0.4-1.2-0.7-1.9-0.9c-0.7-0.2-1.7-0.2-2.8-0.2h-4.6l-2.7,11.6h4.3
			c1.3,0,2.5-0.1,3.5-0.4c1-0.2,1.9-0.7,2.7-1.3c0.9-0.7,1.6-1.5,2.1-2.5C92.6,193.2,92.9,192.1,92.9,191z"/>
		<path class="st5" d="M111.5,214.2c-3.2,0-5.6-0.7-7.4-2.2c-1.8-1.5-2.7-3.6-2.7-6.5c0-4.2,1.3-7.7,4-10.7c2.6-3,5.9-4.5,9.8-4.5
			c2.6,0,4.6,0.6,5.9,1.9c1.4,1.3,2.1,3.1,2.1,5.4c0,0.4-0.1,1-0.2,1.9c-0.1,0.9-0.3,1.9-0.6,3.1h-16.8c-0.1,0.4-0.1,0.8-0.2,1.2
			c0,0.4-0.1,0.7-0.1,1.1c0,1.9,0.6,3.4,1.8,4.5c1.2,1.1,2.8,1.6,5,1.6c1.5,0,3-0.3,4.6-0.9s2.9-1.2,4-2h0.2l-0.8,4.1
			c-0.7,0.2-1.3,0.5-1.8,0.7c-0.5,0.2-1.2,0.4-2.1,0.6c-0.8,0.2-1.6,0.4-2.2,0.5C113.3,214.2,112.5,214.2,111.5,214.2z M119.2,199.9
			c0.1-0.4,0.1-0.7,0.1-1c0-0.3,0-0.6,0-0.9c0-1.4-0.4-2.6-1.2-3.4c-0.8-0.8-2.1-1.2-3.8-1.2c-1.9,0-3.6,0.6-5.1,1.8
			c-1.5,1.2-2.5,2.8-3,4.7H119.2z"/>
		<path class="st5" d="M132.8,214.3c-1.7,0-3.2-0.2-4.6-0.6s-2.5-0.9-3.4-1.4l0.9-4.1h0.2c0.3,0.2,0.7,0.5,1.1,0.9
			c0.5,0.3,1,0.7,1.7,1c0.6,0.3,1.4,0.6,2.2,0.8c0.8,0.2,1.7,0.3,2.6,0.3c1.9,0,3.4-0.4,4.5-1.1c1.1-0.7,1.6-1.7,1.6-3.1
			c0-0.7-0.3-1.3-0.8-1.7c-0.6-0.4-1.4-0.7-2.4-0.9c-0.5-0.1-1.2-0.3-1.9-0.4c-0.7-0.1-1.5-0.3-2.3-0.5c-1.6-0.4-2.8-1.1-3.5-1.9
			c-0.8-0.8-1.1-1.9-1.1-3.1c0-1.1,0.2-2,0.7-3c0.5-0.9,1.1-1.8,2.1-2.5c0.9-0.7,2-1.3,3.3-1.8c1.3-0.5,2.8-0.7,4.5-0.7
			c1.4,0,2.7,0.2,4.1,0.5c1.4,0.3,2.5,0.8,3.3,1.3l-0.8,3.9h-0.2c-0.2-0.2-0.5-0.4-1-0.7c-0.4-0.3-1-0.6-1.7-0.9
			c-0.6-0.3-1.3-0.5-2.1-0.7c-0.8-0.2-1.6-0.3-2.4-0.3c-1.7,0-3.1,0.4-4.1,1.1s-1.6,1.7-1.6,2.9c0,0.7,0.3,1.2,0.8,1.7
			c0.5,0.5,1.3,0.8,2.4,1.1c0.7,0.2,1.4,0.3,2.1,0.5c0.7,0.1,1.4,0.3,2.1,0.5c1.6,0.4,2.8,1,3.6,1.8s1.2,1.9,1.2,3.1
			c0,1-0.2,2.1-0.7,3.1c-0.5,1-1.2,1.9-2.2,2.6c-1,0.8-2.1,1.4-3.5,1.8C136,214,134.5,214.3,132.8,214.3z"/>
		<path class="st5" d="M158.2,214.2c-3.2,0-5.6-0.7-7.4-2.2c-1.8-1.5-2.7-3.6-2.7-6.5c0-4.2,1.3-7.7,4-10.7c2.6-3,5.9-4.5,9.8-4.5
			c2.6,0,4.6,0.6,5.9,1.9c1.4,1.3,2.1,3.1,2.1,5.4c0,0.4-0.1,1-0.2,1.9c-0.1,0.9-0.3,1.9-0.6,3.1h-16.8c-0.1,0.4-0.1,0.8-0.2,1.2
			c0,0.4-0.1,0.7-0.1,1.1c0,1.9,0.6,3.4,1.8,4.5c1.2,1.1,2.8,1.6,5,1.6c1.5,0,3-0.3,4.6-0.9c1.6-0.6,2.9-1.2,4-2h0.2l-0.8,4.1
			c-0.7,0.2-1.3,0.5-1.8,0.7c-0.5,0.2-1.2,0.4-2.1,0.6c-0.8,0.2-1.6,0.4-2.2,0.5C160,214.2,159.2,214.2,158.2,214.2z M165.9,199.9
			c0.1-0.4,0.1-0.7,0.1-1c0-0.3,0-0.6,0-0.9c0-1.4-0.4-2.6-1.2-3.4c-0.8-0.8-2.1-1.2-3.8-1.2c-1.9,0-3.6,0.6-5.1,1.8
			c-1.5,1.2-2.5,2.8-3,4.7H165.9z"/>
		<path class="st5" d="M186.8,211.3c-0.4,0.2-0.9,0.5-1.5,0.9c-0.6,0.4-1.3,0.7-1.9,1c-0.7,0.3-1.5,0.6-2.3,0.8
			c-0.9,0.2-1.8,0.3-3,0.3c-1.8,0-3.3-0.5-4.4-1.6c-1.1-1-1.7-2.4-1.7-4.1c0-1.8,0.4-3.3,1.2-4.6c0.8-1.2,2-2.2,3.5-3
			c1.5-0.8,3.4-1.3,5.6-1.7c2.2-0.3,4.6-0.6,7.4-0.6c0.1-0.4,0.2-0.7,0.2-1c0.1-0.3,0.1-0.6,0.1-0.9c0-0.6-0.1-1.2-0.4-1.6
			c-0.3-0.4-0.6-0.7-1.1-1c-0.5-0.2-1-0.4-1.7-0.5c-0.6-0.1-1.3-0.1-2.1-0.1c-1.2,0-2.5,0.2-4,0.6c-1.5,0.4-2.7,0.7-3.6,1.1H177
			l0.8-3.8c0.8-0.2,1.9-0.4,3.4-0.7c1.5-0.3,2.9-0.4,4.3-0.4c2.8,0,5,0.4,6.4,1.3c1.4,0.9,2.1,2.3,2.1,4.2c0,0.4,0,0.8-0.1,1.2
			s-0.1,0.8-0.2,1.2l-3.6,15.4h-3.8L186.8,211.3z M189.1,201.8c-2.1,0.1-4,0.2-5.6,0.5c-1.6,0.2-3,0.6-4,1c-1.1,0.4-1.9,1.1-2.5,1.8
			c-0.6,0.8-0.9,1.7-0.9,2.9c0,1,0.3,1.7,1,2.2c0.7,0.5,1.7,0.8,3.1,0.8c1.2,0,2.5-0.3,3.8-0.8c1.3-0.5,2.5-1.2,3.6-2L189.1,201.8z"
			/>
		<path class="st5" d="M215.9,195.1h-0.2c-0.5-0.1-1-0.2-1.5-0.3c-0.5-0.1-1-0.1-1.7-0.1c-1.3,0-2.5,0.3-3.8,0.9
			c-1.3,0.6-2.5,1.3-3.6,2.1l-3.7,16.1h-3.9l5.2-22.7h3.9l-0.8,3.3c1.8-1.3,3.3-2.1,4.6-2.6c1.3-0.5,2.5-0.7,3.6-0.7
			c0.7,0,1.2,0,1.4,0.1c0.3,0,0.7,0.1,1.3,0.2L215.9,195.1z"/>
		<path class="st5" d="M225.2,214.2c-1.4,0-2.7-0.2-3.8-0.5c-1.1-0.3-2.1-0.9-2.9-1.6c-0.8-0.7-1.4-1.6-1.9-2.7
			c-0.4-1.1-0.7-2.3-0.7-3.7c0-2.1,0.3-4.1,1-5.9c0.7-1.8,1.6-3.5,2.8-4.9c1.2-1.4,2.6-2.4,4.4-3.2c1.7-0.8,3.6-1.2,5.6-1.2
			c1.3,0,2.6,0.2,3.8,0.5c1.2,0.4,2.2,0.8,3.1,1.3l-0.8,4.1h-0.2c-0.3-0.2-0.6-0.5-1-0.8c-0.4-0.3-0.9-0.6-1.4-0.9
			c-0.6-0.3-1.2-0.5-1.9-0.7c-0.7-0.2-1.5-0.3-2.3-0.3c-2.6,0-4.8,1.1-6.5,3.3c-1.7,2.2-2.5,4.9-2.5,8.1c0,1.9,0.5,3.4,1.5,4.4
			c1,1,2.4,1.5,4.2,1.5c0.9,0,1.7-0.1,2.6-0.4c0.9-0.2,1.6-0.5,2.2-0.8c0.7-0.3,1.3-0.6,1.9-1c0.6-0.3,1-0.6,1.2-0.8h0.2l-0.8,4.2
			c-1.2,0.5-2.4,1-3.8,1.4C227.9,214,226.5,214.2,225.2,214.2z"/>
		<path class="st5" d="M259.9,196.2c0,0.3,0,0.8-0.1,1.3c-0.1,0.6-0.1,1-0.3,1.5l-3.4,14.7h-3.8l3-12.9c0.2-0.7,0.3-1.3,0.4-1.9
			c0.1-0.5,0.1-1.1,0.1-1.6c0-1.1-0.3-2-0.9-2.6c-0.6-0.6-1.6-0.9-3.1-0.9c-1,0-2.2,0.3-3.4,0.9c-1.2,0.6-2.5,1.2-3.7,2l-3.9,16.9
			h-3.8l7.3-31.6h3.8l-2.7,11.4c1.5-1,2.8-1.8,4.1-2.3c1.3-0.5,2.6-0.8,3.9-0.8c2,0,3.5,0.5,4.6,1.5
			C259.4,192.9,259.9,194.3,259.9,196.2z"/>
		<path class="st5" d="M308.1,195.1c0,3.3-0.8,6.4-2.5,9.4c-1.7,3-4,5.2-6.9,6.8c-1.8,1-3.6,1.6-5.5,1.9c-1.9,0.3-4,0.5-6.4,0.5
			h-8.2l7-30.2h7.1c2.2,0,4.2,0.2,6,0.5c1.8,0.3,3.5,1,5,2c1.4,1,2.5,2.2,3.3,3.8C307.7,191.2,308.1,193,308.1,195.1z M303.8,195.4
			c0-1.5-0.3-2.9-0.8-4c-0.6-1.1-1.4-2-2.5-2.8c-1.1-0.7-2.3-1.2-3.5-1.5c-1.3-0.2-2.8-0.4-4.8-0.4h-3.4l-5.5,23.6h4.2
			c1.9,0,3.7-0.2,5.2-0.5c1.5-0.3,3-0.9,4.3-1.6c2.2-1.2,3.9-3,5-5.4C303.3,200.6,303.8,198.1,303.8,195.4z"/>
		<path class="st5" d="M324.7,211.3c-0.4,0.2-0.9,0.5-1.5,0.9c-0.6,0.4-1.3,0.7-1.9,1c-0.7,0.3-1.5,0.6-2.3,0.8
			c-0.9,0.2-1.8,0.3-3,0.3c-1.8,0-3.3-0.5-4.4-1.6c-1.1-1-1.7-2.4-1.7-4.1c0-1.8,0.4-3.3,1.2-4.6c0.8-1.2,2-2.2,3.5-3
			c1.5-0.8,3.4-1.3,5.6-1.7c2.2-0.3,4.6-0.6,7.4-0.6c0.1-0.4,0.2-0.7,0.2-1c0.1-0.3,0.1-0.6,0.1-0.9c0-0.6-0.1-1.2-0.4-1.6
			c-0.3-0.4-0.6-0.7-1.1-1c-0.5-0.2-1-0.4-1.7-0.5c-0.6-0.1-1.3-0.1-2.1-0.1c-1.2,0-2.5,0.2-4,0.6c-1.5,0.4-2.7,0.7-3.6,1.1h-0.2
			l0.8-3.8c0.8-0.2,1.9-0.4,3.4-0.7c1.5-0.3,2.9-0.4,4.3-0.4c2.8,0,5,0.4,6.4,1.3c1.4,0.9,2.1,2.3,2.1,4.2c0,0.4,0,0.8-0.1,1.2
			s-0.1,0.8-0.2,1.2l-3.6,15.4h-3.8L324.7,211.3z M327,201.8c-2.1,0.1-4,0.2-5.6,0.5c-1.6,0.2-3,0.6-4,1c-1.1,0.4-1.9,1.1-2.5,1.8
			c-0.6,0.8-0.9,1.7-0.9,2.9c0,1,0.3,1.7,1,2.2c0.7,0.5,1.7,0.8,3.1,0.8c1.2,0,2.5-0.3,3.8-0.8c1.3-0.5,2.5-1.2,3.6-2L327,201.8z"/>
		<path class="st5" d="M352.5,191l-0.7,3.1h-7.9l-2.4,10.5c-0.1,0.5-0.3,1.1-0.4,1.8c-0.1,0.7-0.2,1.2-0.2,1.6c0,1,0.3,1.7,0.8,2.2
			c0.5,0.5,1.4,0.7,2.8,0.7c0.6,0,1.2-0.1,2-0.3c0.8-0.2,1.3-0.3,1.6-0.4h0.2l-0.7,3.3c-0.8,0.2-1.6,0.3-2.4,0.5
			c-0.9,0.1-1.6,0.2-2.3,0.2c-1.9,0-3.3-0.4-4.4-1.2c-1-0.8-1.5-2.1-1.5-3.9c0-0.4,0-0.9,0.1-1.3c0.1-0.4,0.1-0.9,0.3-1.5l2.8-12.2
			h-2.6l0.7-3.1h2.6l1.5-6.5h3.9l-1.5,6.5H352.5z"/>
		<path class="st5" d="M366.3,211.3c-0.4,0.2-0.9,0.5-1.5,0.9c-0.6,0.4-1.3,0.7-1.9,1c-0.7,0.3-1.5,0.6-2.3,0.8
			c-0.9,0.2-1.8,0.3-3,0.3c-1.8,0-3.3-0.5-4.4-1.6c-1.1-1-1.7-2.4-1.7-4.1c0-1.8,0.4-3.3,1.2-4.6c0.8-1.2,2-2.2,3.5-3
			c1.5-0.8,3.4-1.3,5.6-1.7c2.2-0.3,4.6-0.6,7.4-0.6c0.1-0.4,0.2-0.7,0.2-1c0.1-0.3,0.1-0.6,0.1-0.9c0-0.6-0.1-1.2-0.4-1.6
			c-0.3-0.4-0.6-0.7-1.1-1c-0.5-0.2-1-0.4-1.7-0.5c-0.6-0.1-1.3-0.1-2.1-0.1c-1.2,0-2.5,0.2-4,0.6c-1.5,0.4-2.7,0.7-3.6,1.1h-0.2
			l0.8-3.8c0.8-0.2,1.9-0.4,3.4-0.7c1.5-0.3,2.9-0.4,4.3-0.4c2.8,0,5,0.4,6.4,1.3c1.4,0.9,2.1,2.3,2.1,4.2c0,0.4,0,0.8-0.1,1.2
			s-0.1,0.8-0.2,1.2l-3.6,15.4h-3.8L366.3,211.3z M368.5,201.8c-2.1,0.1-4,0.2-5.6,0.5c-1.6,0.2-3,0.6-4,1c-1.1,0.4-1.9,1.1-2.5,1.8
			c-0.6,0.8-0.9,1.7-0.9,2.9c0,1,0.3,1.7,1,2.2c0.7,0.5,1.7,0.8,3.1,0.8c1.2,0,2.5-0.3,3.8-0.8c1.3-0.5,2.5-1.2,3.6-2L368.5,201.8z"
			/>
		<path class="st5" d="M417.4,213.7h-4.7l-8-12.1h-5.8l-2.8,12.1H392l7-30.2h8.3c1.9,0,3.4,0.1,4.5,0.4c1.2,0.2,2.2,0.7,3,1.3
			c0.8,0.6,1.4,1.2,1.8,2c0.4,0.8,0.7,1.8,0.7,2.9c0,2.5-0.8,4.7-2.4,6.6c-1.6,1.9-3.7,3.2-6.2,4L417.4,213.7z M412.8,191
			c0-0.7-0.1-1.3-0.3-1.8c-0.2-0.5-0.6-0.9-1-1.3c-0.5-0.4-1.2-0.7-1.9-0.9c-0.7-0.2-1.7-0.2-2.8-0.2h-4.6l-2.7,11.6h4.3
			c1.3,0,2.5-0.1,3.5-0.4c1-0.2,1.9-0.7,2.7-1.3c0.9-0.7,1.6-1.5,2.1-2.5C412.6,193.2,412.8,192.1,412.8,191z"/>
		<path class="st5" d="M431.5,214.2c-3.2,0-5.6-0.7-7.4-2.2c-1.8-1.5-2.7-3.6-2.7-6.5c0-4.2,1.3-7.7,4-10.7s5.9-4.5,9.8-4.5
			c2.6,0,4.6,0.6,5.9,1.9c1.4,1.3,2.1,3.1,2.1,5.4c0,0.4-0.1,1-0.2,1.9c-0.1,0.9-0.3,1.9-0.6,3.1h-16.8c-0.1,0.4-0.1,0.8-0.2,1.2
			c0,0.4-0.1,0.7-0.1,1.1c0,1.9,0.6,3.4,1.8,4.5c1.2,1.1,2.8,1.6,5,1.6c1.5,0,3-0.3,4.6-0.9c1.6-0.6,2.9-1.2,4-2h0.2l-0.8,4.1
			c-0.7,0.2-1.3,0.5-1.8,0.7s-1.2,0.4-2.1,0.6c-0.8,0.2-1.6,0.4-2.2,0.5C433.3,214.2,432.5,214.2,431.5,214.2z M439.2,199.9
			c0.1-0.4,0.1-0.7,0.1-1c0-0.3,0-0.6,0-0.9c0-1.4-0.4-2.6-1.2-3.4c-0.8-0.8-2.1-1.2-3.8-1.2c-1.9,0-3.6,0.6-5.1,1.8
			c-1.5,1.2-2.5,2.8-3,4.7H439.2z"/>
		<path class="st5" d="M468.8,198.2c0,2.2-0.4,4.4-1.1,6.3c-0.7,2-1.6,3.7-2.8,5c-1.2,1.4-2.5,2.5-4.1,3.4c-1.6,0.8-3.2,1.2-5,1.2
			c-1.2,0-2.4-0.1-3.4-0.4s-2-0.7-2.8-1.2l-2.2,9.5h-3.8l7.2-31h3.8l-0.6,2.4c1.3-0.9,2.5-1.6,3.7-2.2c1.2-0.6,2.6-0.8,4.1-0.8
			c2.2,0,3.9,0.7,5.1,2.1C468.2,193.8,468.8,195.7,468.8,198.2z M464.8,198.9c0-1.6-0.4-2.9-1.1-3.7c-0.7-0.9-1.8-1.3-3.4-1.3
			c-1.1,0-2.3,0.3-3.5,0.8c-1.2,0.6-2.3,1.2-3.4,1.9l-3,12.9c0.9,0.5,1.7,0.8,2.5,1.1c0.8,0.2,1.8,0.3,2.9,0.3c1.4,0,2.7-0.3,3.8-1
			s2.1-1.6,2.8-2.6c0.8-1.1,1.4-2.4,1.7-3.8C464.6,202,464.8,200.5,464.8,198.9z"/>
		<path class="st5" d="M494.1,199.1c0,2-0.3,4-0.9,5.8c-0.6,1.9-1.5,3.5-2.7,4.9c-1.2,1.4-2.6,2.6-4.1,3.4c-1.6,0.8-3.4,1.2-5.4,1.2
			c-2.7,0-4.8-0.8-6.3-2.3c-1.5-1.5-2.3-3.7-2.3-6.4c0-2,0.3-4,0.9-5.8c0.6-1.8,1.5-3.5,2.7-4.9c1.1-1.4,2.5-2.5,4.2-3.3
			c1.6-0.8,3.4-1.2,5.4-1.2c2.6,0,4.7,0.7,6.3,2.2S494.1,196.3,494.1,199.1z M487.8,207.6c0.7-1.1,1.3-2.3,1.7-3.8s0.6-2.9,0.6-4.5
			c0-1.9-0.5-3.3-1.4-4.3c-0.9-1-2.2-1.5-3.9-1.5c-1.3,0-2.5,0.3-3.6,0.9c-1,0.6-2,1.5-2.7,2.6c-0.7,1.1-1.3,2.3-1.7,3.8
			c-0.4,1.4-0.6,2.9-0.6,4.5c0,1.9,0.5,3.3,1.4,4.3c0.9,1,2.2,1.5,3.9,1.5c1.3,0,2.5-0.3,3.6-0.9
			C486.2,209.6,487.1,208.7,487.8,207.6z"/>
		<path class="st5" d="M504.2,214.3c-1.7,0-3.2-0.2-4.6-0.6c-1.3-0.4-2.5-0.9-3.4-1.4l0.9-4.1h0.2c0.3,0.2,0.7,0.5,1.1,0.9
			c0.5,0.3,1,0.7,1.7,1c0.6,0.3,1.4,0.6,2.2,0.8c0.8,0.2,1.7,0.3,2.6,0.3c1.9,0,3.4-0.4,4.5-1.1s1.6-1.7,1.6-3.1
			c0-0.7-0.3-1.3-0.8-1.7c-0.6-0.4-1.4-0.7-2.4-0.9c-0.5-0.1-1.2-0.3-1.9-0.4c-0.7-0.1-1.5-0.3-2.3-0.5c-1.6-0.4-2.8-1.1-3.5-1.9
			c-0.8-0.8-1.1-1.9-1.1-3.1c0-1.1,0.2-2,0.7-3c0.5-0.9,1.1-1.8,2.1-2.5c0.9-0.7,2-1.3,3.3-1.8c1.3-0.5,2.8-0.7,4.5-0.7
			c1.4,0,2.7,0.2,4.1,0.5c1.4,0.3,2.5,0.8,3.3,1.3l-0.8,3.9H516c-0.2-0.2-0.5-0.4-1-0.7c-0.4-0.3-1-0.6-1.7-0.9
			c-0.6-0.3-1.3-0.5-2.1-0.7c-0.8-0.2-1.6-0.3-2.4-0.3c-1.7,0-3.1,0.4-4.1,1.1c-1.1,0.7-1.6,1.7-1.6,2.9c0,0.7,0.3,1.2,0.8,1.7
			c0.5,0.5,1.3,0.8,2.4,1.1c0.7,0.2,1.4,0.3,2.1,0.5c0.7,0.1,1.4,0.3,2.1,0.5c1.6,0.4,2.8,1,3.6,1.8s1.2,1.9,1.2,3.1
			c0,1-0.2,2.1-0.7,3.1c-0.5,1-1.2,1.9-2.2,2.6c-1,0.8-2.1,1.4-3.5,1.8C507.4,214,505.9,214.3,504.2,214.3z"/>
		<path class="st5" d="M528,191l-5.3,22.7h-3.8l5.3-22.7H528z M530.1,183.3l-0.9,4h-4.3l0.9-4H530.1z"/>
		<path class="st5" d="M547.4,191l-0.7,3.1h-7.9l-2.4,10.5c-0.1,0.5-0.3,1.1-0.4,1.8c-0.1,0.7-0.2,1.2-0.2,1.6c0,1,0.3,1.7,0.8,2.2
			c0.5,0.5,1.4,0.7,2.8,0.7c0.6,0,1.2-0.1,2-0.3c0.8-0.2,1.3-0.3,1.6-0.4h0.2l-0.7,3.3c-0.8,0.2-1.6,0.3-2.4,0.5
			c-0.9,0.1-1.6,0.2-2.3,0.2c-1.9,0-3.3-0.4-4.4-1.2c-1-0.8-1.5-2.1-1.5-3.9c0-0.4,0-0.9,0.1-1.3c0.1-0.4,0.1-0.9,0.3-1.5l2.8-12.2
			h-2.6l0.7-3.1h2.6l1.5-6.5h3.9l-1.5,6.5H547.4z"/>
		<path class="st5" d="M569.2,199.1c0,2-0.3,4-0.9,5.8c-0.6,1.9-1.5,3.5-2.7,4.9c-1.2,1.4-2.6,2.6-4.1,3.4c-1.5,0.8-3.4,1.2-5.4,1.2
			c-2.7,0-4.8-0.8-6.3-2.3c-1.5-1.5-2.3-3.7-2.3-6.4c0-2,0.3-4,0.9-5.8c0.6-1.8,1.5-3.5,2.7-4.9c1.1-1.4,2.5-2.5,4.2-3.3
			c1.6-0.8,3.4-1.2,5.4-1.2c2.6,0,4.7,0.7,6.3,2.2C568.4,194.1,569.2,196.3,569.2,199.1z M563,207.6c0.7-1.1,1.3-2.3,1.7-3.8
			c0.4-1.4,0.6-2.9,0.6-4.5c0-1.9-0.5-3.3-1.4-4.3c-0.9-1-2.2-1.5-3.9-1.5c-1.3,0-2.5,0.3-3.6,0.9c-1,0.6-2,1.5-2.7,2.6
			c-0.7,1.1-1.3,2.3-1.7,3.8c-0.4,1.4-0.6,2.9-0.6,4.5c0,1.9,0.5,3.3,1.4,4.3c0.9,1,2.2,1.5,3.9,1.5c1.3,0,2.5-0.3,3.6-0.9
			C561.3,209.6,562.2,208.7,563,207.6z"/>
		<path class="st5" d="M590.6,195.1h-0.2c-0.5-0.1-1.1-0.2-1.5-0.3c-0.5-0.1-1-0.1-1.7-0.1c-1.3,0-2.5,0.3-3.8,0.9
			c-1.3,0.6-2.5,1.3-3.6,2.1l-3.7,16.1h-3.9l5.2-22.7h3.9l-0.8,3.3c1.8-1.3,3.3-2.1,4.6-2.6c1.3-0.5,2.5-0.7,3.6-0.7
			c0.7,0,1.2,0,1.4,0.1c0.3,0,0.7,0.1,1.3,0.2L590.6,195.1z"/>
		<path class="st5" d="M594.1,222.1h-4.2l6.6-9.7l-4.1-21.3h4l3.2,16.9l10.9-16.9h4.2L594.1,222.1z"/>
	</g>
</g>
</svg>
